<?xml version="1.0" encoding="utf-8"?>
<!-- Generator: Adobe Illustrator 19.2.1, SVG Export Plug-In . SVG Version: 6.00 Build 0)  -->
<svg version="1.1" id="layer" xmlns="http://www.w3.org/2000/svg" xmlns:xlink="http://www.w3.org/1999/xlink" x="0px" y="0px"
	 viewBox="0 0 652 652" style="enable-background:new 0 0 652 652;" xml:space="preserve">
<style type="text/css">
	.st0{fill:#004990;}
</style>
<g>
	<path class="st0" d="M255.2,379.5c0,7.6,5,11.1,11.4,11.1c9,0,11-5.9,11-11.6v-15.4c0-4.9-4.4-2.9-4.4-4.7c0-0.2,0.3-0.5,0.5-0.5
		c1.9,0,3.7,0.2,5.6,0.2c0.9,0,1.8-0.2,2.6-0.2c0.2,0,0.6,0.2,0.6,0.5c0,1.3-2.8,0.3-2.8,4.7v14.8c0,2.3,0.6,14.1-13.3,14.1
		c-12.5,0-14.9-7-14.9-14.3v-16.1c0-2.8-3.9-1.7-3.9-3.2c0-0.3,0.8-0.5,1-0.5c1.2,0,2.4,0.2,3.7,0.2c1.5,0,3.1-0.2,4.5-0.2
		c0.2,0,1.5-0.1,1.5,0.5c0,1.3-3.2,0-3.2,3.4V379.5z"/>
	<path class="st0" d="M300.5,367.9c0-9.9-5.8-7.2-5.8-8.9c0-0.3,0.5-0.5,0.7-0.5c0.8,0,1.5,0.2,2.2,0.2c0.7,0,1.5-0.2,2.2-0.2
		c0.5,0,0.9,0.8,1.2,1.1l22.8,25.4c0.3,0.3,0.5,0.5,0.6,0.5c0.1,0,0.1-0.1,0.1-0.5V365c0-6.3-5.3-4.4-5.3-6c0-0.3,0.2-0.5,0.5-0.5
		c1.4,0,2.8,0.2,4.3,0.2c1.6,0,3.7-0.2,4.8-0.2c0.3,0,0.5,0.1,0.5,0.4c0,1.2-2.8,0.4-2.8,3.9v27.7c0,1.4-0.1,2.1-0.4,2.1
		c-0.3,0-0.8-0.3-1.8-1.3L303.9,368c-0.1-0.1-0.7-0.9-1-0.9c-0.2,0-0.4,0.1-0.4,1.1v19.5c0,4.3,4.2,2.6,4.2,3.9c0,0.2,0,0.6-0.5,0.6
		c-1.2,0-2.5-0.2-4.8-0.2c-1.7,0-4.2,0.2-4.5,0.2c-0.6,0-0.6-0.3-0.6-0.5c0-1.7,4.2,0.4,4.2-6.2V367.9z"/>
	<path class="st0" d="M348.9,362.6c0-3.5-3.9-2.5-3.9-3.6c0-0.4,0.1-0.5,0.5-0.5c1.8,0,3.5,0.2,5.2,0.2c1.5,0,3-0.2,4.4-0.2
		c0.8,0,0.9,0.1,0.9,0.5c0,1.1-3.4,0-3.4,3.6v25.6c0,3.2,4.3,2.2,4.3,3.6c0,0.3-0.1,0.5-1,0.5c-1.1,0-3.2-0.2-5.2-0.2
		c-2.9,0-3.9,0.2-4.6,0.2c-0.9,0-1-0.2-1-0.7c0-1.4,3.7,0.2,3.7-4.5V362.6z"/>
	<path class="st0" d="M371.8,362.2c-1.2-2.9-3.7-2-3.7-3c0-0.4,0.2-0.7,0.7-0.7c1.5,0,3,0.1,4.4,0.1c1.3,0,3.1-0.1,3.8-0.1
		c0.3,0,0.7,0.2,0.7,0.5c0.1,0.7-1.9,0.7-1.9,2.5c0,0.7,0.2,1.4,0.4,1.9l8.4,19.7c1,2.5,1.4,3.6,1.9,3.6c0.5,0,0.6-0.8,0.9-1.3
		l8.3-20.5c0.3-0.7,0.9-2.2,0.7-3.2c0-2.2-3.1-1.3-3.1-2.4c0-0.5,0.2-0.6,0.7-0.6c1,0,2.1,0.1,3.1,0.1c2.3,0,3-0.1,3.7-0.1
		c0.5,0,0.8,0.2,0.8,0.6c0,1.1-1.3-0.1-2.7,3.1l-11.9,28.1c-0.5,1.2-0.9,2.8-1.6,2.8c-0.8,0-1.3-2-1.8-3L371.8,362.2z"/>
	<path class="st0" d="M458.1,361.8c0-1.9,1-1.8,2.7-1.8c4.7,0,9.2,2,9.2,7.8c0,5.9-4.6,6.8-6.7,6.8c-2.3,0-5.2,0.2-5.2-0.7V361.8z
		 M467.5,375c3.3-1.4,6-4.5,6-8.3c0-9.2-10.6-8.2-11.3-8.2c-2.5,0-5.2,0.2-8,0.2c-2.4,0-2.2-0.2-3-0.2c-0.6,0-1,0.3-1,0.6
		c0,1.6,4.1-0.3,4.1,4.2v24.3c0,3.6-3.5,3-3.5,4.2c0,0.3,0.2,0.5,0.5,0.5c1.8,0,3.6-0.1,5.4-0.1c4,0,5.1,0.1,5.5,0.1
		c0.4,0,0.8,0.1,0.8-0.4c0-1.6-5-0.1-5-4.3v-10c0-0.5-0.3-1.3,1.3-1.3c5.3,0,4.6-0.2,6.3,2.5l5.3,8.3c1.8,2.7,3.7,5.1,7.2,5.1
		c0.4,0,3.1,0,3.1-0.6c0-1.1-2.3,0.6-5.8-4.6L467.5,375z"/>
	<path class="st0" d="M490.5,383.8c-0.2-0.9,0.1-1.5,0.5-1.5c0.7,0,0.7,0.6,0.9,1.6c0.6,2.2,3.4,7.2,10,7.2c4.6,0,9-2.5,9-7.5
		c0-9.2-19.5-4-19.5-16.5c0-6.1,5.1-9,10.6-9c5.8,0,7.4,1.7,8.1,1.7c0.4,0,0.5-0.5,1-0.5c0.3,0,0.5,0.2,0.6,0.7l0.7,6.5
		c0,0.4-0.1,0.7-0.5,0.7c-0.5,0-0.9-1-1-1.4c-1.4-4.1-5-6.2-9.2-6.2c-3.8,0-7.8,1.8-7.8,6.2c0,9,19.5,3.7,19.5,16.9
		c0,4-2.8,10-13.7,10c-3.6,0-7.9-1.8-8.1-2.6L490.5,383.8z"/>
	<path class="st0" d="M531.7,362.6c-0.1-3.5-3.9-2.5-3.9-3.6c0-0.4,0.1-0.5,0.5-0.5c1.8,0,3.5,0.2,5.2,0.2c1.5,0,3-0.2,4.4-0.2
		c0.8,0,0.9,0.1,0.9,0.5c0,1.1-3.4,0-3.4,3.6v25.6c0,3.2,4.2,2.2,4.2,3.6c0,0.3-0.1,0.5-0.9,0.5c-1.1,0-3.2-0.2-5.2-0.2
		c-2.9,0-3.9,0.2-4.6,0.2c-0.9,0-1-0.2-1-0.7c0-1.4,3.7,0.2,3.7-4.5V362.6z"/>
	<path class="st0" d="M564.6,363.3c0-0.3,0.2-2.1-0.5-2.2h-7.8c-3,0-3,0.7-3.9,3.3c-0.2,0.5-0.2,1.1-0.8,1.1c-0.3,0-0.5-0.3-0.5-0.6
		l0.5-4.6c0.1-0.6,0-1.8,0.9-1.8c3.7,0,7.4,0.2,13.6,0.2c8.7,0,13-0.2,14-0.2c1.1,0,1.4,0.3,1.4,1.4l0.2,3.8c0,0.5,0.1,1.1-0.5,1.1
		c-1.8,0,0.8-3.6-4.1-3.6h-6.8c-2.2,0-1.9-0.2-1.9,2.3v24.3c0,4,3.9,2.4,3.9,3.9c0,0.1,0.1,0.6-0.4,0.6c-1.1,0-2.5-0.2-3.9-0.2
		c-5.3,0-6.2,0.2-6.5,0.2c-0.5,0-0.6-0.1-0.6-0.6c0-1.1,3.8-0.7,3.8-3.5V363.3z"/>
	<path class="st0" d="M594.2,361.5c-1.2-2-3.6-1.5-3.6-2.3c0-0.3,0.3-0.7,0.6-0.7c1.3,0,2.2,0.2,5.4,0.2c1.6,0,2.9-0.2,3.4-0.2
		c0.3,0,0.9,0,0.9,0.5c0,0.8-2.2,0.9-2.2,2.2c0,0.8,0.6,1.5,0.9,2l5.8,9.2c0.4,0.6,0.7,0.9,0.9,0.9c0.2,0,0.5-0.3,0.9-1l4.9-7.9
		c0.3-0.5,1-1.3,1-2.6c0-2.3-3.6-1.4-3.6-2.5c0-0.6,0.5-0.7,1-0.7c1.1,0,2.3,0.2,3.5,0.2c1.4,0,2.8-0.2,4.2-0.2
		c0.3,0,0.5,0.3,0.5,0.6c0,0.5-0.8,0.7-1.1,0.9c-1.3,0.8-1.9,2.1-2.7,3.3l-6.7,10.4c-0.8,1.2-1.2,1.4-1.2,2.1v11.7
		c0,4.2,3.9,2.8,3.9,4.3c0,0.4-0.4,0.5-1.1,0.5c-0.7,0-3.5-0.2-5.2-0.2c-2.2,0-3.9,0.2-4.3,0.2c-0.5,0-0.7-0.1-0.7-0.6
		c0-1.3,3.7-0.1,3.7-3.5v-11.5c0-0.9-0.7-1.8-1.1-2.4L594.2,361.5z"/>
	<path class="st0" d="M420.1,372.1c0,1.6-0.1,1.6,1.8,1.6h5.1c4.9,0,3.7-3.8,4.8-3.8c0.4,0,0.5,0.5,0.5,0.9c0,1.7-0.1,3.3-0.1,4.8
		c0,1.2,0.1,2.5,0.1,3.8c0,0.4-0.2,0.6-0.5,0.6c-1.5,0,0.1-4.2-3.8-4.2h-7c-1,0-0.9,0.8-0.9,1.5v8.8c0,2.8-0.4,3.9,3.6,3.9
		c11,0,12.6-4.9,13.2-4.9c0.3,0,0.4,0.5,0.4,0.6c0,1.7-1.2,3.4-2.4,4.6c-1.5,1.7-2.6,1.6-4.6,1.6c-3.6,0-7.2-0.3-10.9-0.2
		c-1.9,0-3.9,0.2-5.8,0.2c-0.4,0-0.7-0.1-0.7-0.5c0.1-0.6,0.6-0.5,2.1-1.2c1.2-0.6,1.4-1.9,1.4-4.1v-21.8c0-2.2,0-4.5-2.6-4.9
		c-0.4-0.1-1.4-0.2-1.4-0.7c0-0.4,0.3-0.6,1.7-0.6c9,0,11.5,0.1,13.5,0.1c1,0,5.3-0.1,6.8-0.1c0.4,0,0.5,0.5,0.5,1.1
		c0,5.3-0.7,5.7-1,5.7c-1.1,0-0.4-2.3-1.1-3.4c-1.2-1.6-6.2-1.3-8.1-1.3c-4.6,0-4.5-0.2-4.5,3V372.1z"/>
	<path class="st0" d="M447.2,257.5c22.4,0,36.6,20.4,36.6,41.3c0,21.3-13.5,34.7-30.3,34.7c-22.8,0-36.7-20.6-36.7-41.9
		C416.8,273.5,427.8,257.5,447.2,257.5 M448.7,337c25.7,0,43.5-16.7,43.5-42.6c0-23.8-18.1-40.7-41.5-40.7
		c-23.6,0-42.2,17.4-42.2,41.3C408.4,319.3,423.7,337,448.7,337"/>
	<path class="st0" d="M515.4,262.7c0-4.3,2.3-4.1,6.4-4.1c11,0,21.4,4.6,21.4,18.2c0,13.8-10.7,15.9-15.6,15.9
		c-5.3,0-12.2,0.5-12.2-1.6V262.7z M537.4,293.5c7.8-3.1,14.1-10.6,14.1-19.3c0-21.6-24.7-19.3-26.5-19.3c-5.8,0-12.2,0.5-18.6,0.5
		c-5.7,0-5.2-0.5-7.2-0.5c-1.4,0-2.2,0.7-2.2,1.4c0,3.8,9.6-0.8,9.6,9.9V323c0,8.5-8.2,6.9-8.2,9.7c0,0.7,0.5,1.2,1.1,1.2
		c4.3,0,8.5-0.5,12.7-0.5c9.3,0,11.8,0.5,12.9,0.5c0.9,0,1.9,0.2,1.9-0.9c0-3.8-11.6-0.3-11.6-9.9v-23.6c0-1.1-0.7-3.1,2.9-3.1
		c12.5,0,10.9-0.3,14.9,5.9l12.4,19.6c4.3,6.4,8.6,12.1,16.8,12.1c1,0,9.9,0,9.9-1.3c0-2.7-8.1,1.5-16.1-10.9L537.4,293.5z"/>
	<path class="st0" d="M570,261.9c-2.9-4.8-8.4-3.5-8.4-5.4c0-0.8,0.7-1.7,1.5-1.7c3,0,5.1,0.5,12.7,0.5c3.7,0,6.7-0.5,7.8-0.5
		c0.8,0,2.1,0.1,2.1,1.1c0,1.9-5.2,2-5.2,5.2c0,1.8,1.3,3.6,2,4.6l13.5,21.6c0.9,1.3,1.5,2,2.2,2c0.5,0,1.2-0.8,2.1-2.2l11.5-18.7
		c0.8-1.2,2.4-3.1,2.4-6.1c0-5.5-8.4-3.1-8.4-5.8c0-1.5,1.1-1.7,2.3-1.7c2.7,0,5.5,0.5,8.1,0.5c3.2,0,6.5-0.5,9.7-0.5
		c0.7,0,1.2,0.8,1.2,1.3c0,1.2-1.9,1.7-2.7,2.1c-3,1.8-4.5,4.9-6.2,7.7l-15.6,24.4c-1.8,2.8-2.7,3.4-2.7,5v27.4
		c0,9.7,9.2,6.6,9.2,10.1c0,1-1,1.1-2.6,1.1c-1.7,0-8.2-0.5-12.2-0.5c-5,0-9,0.5-10,0.5c-1,0-1.7-0.1-1.7-1.3c0-3.1,8.6-0.2,8.6-8.2
		v-27c0-2.1-1.7-4.4-2.6-5.7L570,261.9z"/>
	<path class="st0" d="M395.7,323.6c0.5,9.4,8.8,5.2,8.8,9.2c0,1.1-1.5,1.1-2.7,1.1c-2.1,0-6-0.5-10.5-0.5c-3.4,0-7,0.5-9.7,0.5
		c-1,0-1.2-0.6-1.2-1c0-3.4,7-0.9,6.9-9.1l-3-43.3c0-2.8-0.5-4.4-1.2-4.4c-0.8,0-1.8,1-2.9,3.3l-23.1,47.1c-0.6,1-2.3,5.6-3.5,5.6
		c-1.1,0-1.9-2.5-2.2-3.2l-23.8-49.7c-0.4-0.9-0.9-1.2-1.4-1.2c-0.3,0-0.7,0.6-0.8,1.7l-3.3,39.1c-0.6,14.8,10,9.9,10,13.9
		c0,1.1-1.2,1.2-2.8,1.2c-1.4,0-6.5-0.5-9.7-0.5c-5.8,0-7.7,0.5-9.9,0.5c-0.8,0-1.1-0.6-1.1-1.3c0-3.8,7.1,0.8,7.9-10.8
		c1.4-18.2,2.7-30.1,2.7-41.9c0-26.3-8.7-20-8.7-23.8c0-1,0.9-1.2,1.9-1.2c2,0,4,0.5,6.1,0.5c2,0,4-0.5,5.9-0.5
		c1.6,0,1.8,1.9,2.4,3.1l26.6,56.8c1.2,2.3,1.7,3.3,2.5,3.3c0.6,0,1.7-2.3,3.5-6l26.6-53.4c0.7-1.2,1.6-3.9,2.9-3.8
		c1.1,0,4.7,0.5,5.2,0.5c2.6,0,3.6-0.5,5.4-0.5c0.7,0,1.1,0.7,1.1,1.3c0,3.6-8.9-1.2-8.5,12.1L395.7,323.6z"/>
	<path class="st0" d="M260,287.4c0,3.8-0.2,3.8,4.2,3.8h12c11.6,0,8.6-9,11.2-9c0.9,0,1.2,1.2,1.2,2.1c0,3.9-0.1,7.7-0.1,11.2
		c0,2.9,0.1,5.8,0.1,8.8c0,1-0.4,1.4-1.2,1.4c-3.4,0,0.4-9.8-9-9.8H262c-2.3,0-2,1.9-2,3.6v20.6c0,6.6-0.9,9.3,8.5,9.3
		c25.7,0,29.5-11.5,30.9-11.5c0.8,0,0.9,1.1,0.9,1.3c0,4-2.9,7.9-5.6,10.9c-3.6,4.1-6,3.9-10.9,3.9c-8.5,0-16.9-0.7-25.4-0.5
		c-4.4,0.1-9.1,0.5-13.6,0.5c-1,0-1.7-0.2-1.7-1.1c0.2-1.4,1.3-1.1,4.9-2.9c2.9-1.3,3.1-4.5,3.1-9.7v-50.9c0-5,0-10.4-6-11.3
		c-0.9-0.2-3.3-0.4-3.3-1.7c0-0.9,0.7-1.3,3.9-1.3c21,0,26.8,0.5,31.5,0.5c2.2,0,12.4-0.5,15.9-0.5c0.9,0,1.1,1.1,1.1,2.5
		c0,12.4-1.5,13.3-2.2,13.3c-2.7,0-0.9-5.4-2.7-7.9c-2.9-3.8-14.4-3.1-18.9-3.1c-10.7,0-10.5-0.5-10.5,7V287.4z"/>
	<path class="st0" d="M97.5,399.3C24.2,365.4,33,289.7,33,254.3l129.8,0.1C162.8,289.8,170.9,365.6,97.5,399.3 M33,248.5l-5.6,5.9
		c-0.1,4.2-0.2,9.6-0.2,12.2c-0.5,41.6,2.3,106.3,70,137.5c35.8-16.6,62.9-45.1,70-89.3c4.1-25.6,1.7-49.9,1.7-66.2L33,248.5z"/>
	<path class="st0" d="M69.8,341.4c-5.2,5.6-10.3,11.1-12.1,12.9c-0.4,0.4-0.4,0.9-0.2,1.1c0.4,0.4,0.8,0.9,1,0.9
		c0.3,0.1,0.6,0.2,1.1-0.4c0.2-0.3,6-5.8,12.7-12.3c0,0-0.7-0.3-1.3-0.9C70.5,342.3,69.8,341.4,69.8,341.4"/>
	<path class="st0" d="M73.3,340c1.3,1.3,3.5,2.5,3.5,2.5l-1.2,1.1c-0.4,0.5-2.1-0.3-3.7-1.7c-1.6-1.5-2.6-3-2.1-3.5l1.3-1.2
		C71.1,337.2,72,338.7,73.3,340"/>
	<path class="st0" d="M132.6,354.2c1.1-1.1,1.1-2.1,1.1-2.1l1.2,0.6c0.3,0.4,0.1,1.7-1,2.8c-1.1,1.1-2.6,1.4-2.9,1.1l-0.6-1.3
		C130.3,355.3,131.5,355.4,132.6,354.2"/>
	<path class="st0" d="M130.8,352.3c0.7-0.6,0.9-1.5,0.9-1.5l0.8,0.5c0.3,0.3,0,1.1-0.8,1.9c-0.8,0.8-1.9,1.1-2.1,0.8l-0.4-0.8
		C129.1,353.2,130.1,353,130.8,352.3"/>
	<path class="st0" d="M134.4,293.1l-1.4,1.2c-1.9,0.7-6.2-2.6-9.6-5.5c-2.3-2-6.8-7-5.5-9l0.6-0.6c-0.4-0.2-0.7-0.4-1-0.6
		c-0.4-0.2-0.9-0.3-1.5-0.3c-0.5,0.1-1,0.3-1,0.7c-0.1,0.9,0.4,2.1,1.1,3.5c0.7,1.4,3.5,5.5,9.2,10c2.6,2.1,5.5,3.3,7.7,4.1
		c0.4,0.1,1.7,0.4,2.3-0.2c0.6-0.6-0.1-1.6-0.5-2.6C134.8,293.7,134.6,293.4,134.4,293.1"/>
	<path class="st0" d="M75.6,272v1.4c0,1.4,1.3,12.8,7.8,21c5.7,7.1,22.8,27.5,25.5,30.7c2.6,3,19.4,22.7,21.5,25.2
		c0.1,0.1,0.2,0.2,0.2,0.3c0,0-0.2,0.5-0.7,0.9c-0.5,0.4-1.1,0.5-1.1,0.5c-0.1,0-0.4-0.4-0.5-0.5c-0.6-0.7-29.7-29.7-32.5-32.5
		c-2.8-2.7-17.8-17.2-23.9-21.1c-5.3-3.4-7.8-5.3-13.6-5.8c0,0-4.2-0.2-4.4-0.4c-0.1,0,0-0.2,0.1-0.3c2.6-1.1,8.2-4.3,12.7-8.6
		c6.3-5.9,8.2-10.1,8.6-10.7C75.2,271.9,75.6,271.9,75.6,272 M79.7,296.6c-6-6-8.3-7.4-11.1-8.6c-1.4-0.6-2.8-1.1-3.2-0.9
		c-1.2,0.5-3,1.2-4.1,2.2c-0.8,0.7-0.7,1-0.3,1.3c0.4,0.2,3.5,0.9,6.3,2.4c4.9,2.6,14.1,9,34.1,29.7c10.1,10.5,26.2,26.8,26.2,26.8
		l0.4-0.3c0,0-23.3-26.1-41.5-45.4C84,300.9,81.7,298.6,79.7,296.6"/>
	<path class="st0" d="M61.7,284.2c-2.6,2.2-6,4.3-8.9,5.5c-1.8,0.8-4.5-0.1-2.6-3.7c0.6-1.1,1.4-2.4,2.5-3.9
		c3.5-4.6,9.7-10.3,15.8-13.6c1.8-1,3.5-1.6,4.3-1.6c1.5,0.1,1.6,1.4,1.3,2.5C73.6,272,69.2,277.9,61.7,284.2 M63.6,280.8
		c0.6-0.6,3.1-3,5.1-5.4c2.2-2.5,3.3-4.8,3.3-4.8s0.3-0.7,0.3-1.2c-0.1-0.4-0.4-0.5-0.6-0.7c-0.2-0.2-5.5,2.2-7.8,4.3
		c-0.3,0.3-0.8,1.3-1,2.1c-0.2,0.6,1.5,2.5,0.4,5.3C63.1,280.8,63.5,280.9,63.6,280.8"/>
	<path class="st0" d="M95.4,320.6c-1.2,1.1-20.1,19.2-20.1,19.2c0.3,0.3,1.1,0.8,1.1,0.8s17.3-16.6,18.6-17.8c0.4-0.3,1.1-1,1.4-1.3
		L95.4,320.6z"/>
	<path class="st0" d="M130.9,298.3c0.3,0,0.5-0.1,0.8-0.1c0.3,0,0.6-0.1,0.7-0.1c0.2-0.1,0.3-0.3,0-0.3c-0.9,0-2.5-0.5-4.3-1.3
		c-1.1,0.3-2.9,0.8-5.1,1.8c-2.7,1.2-8.7,4.8-20.9,16l0.9,1.1c4.2-3.8,9.9-8.8,13-10.8c5.5-3.6,9.4-5.1,12-5.8
		C128.8,298.5,130,298.4,130.9,298.3"/>
	<path class="st0" d="M119,289.4c-3.4-3.5-4.4-6-5-7.9c0-0.1,0-0.1-0.1-0.2c0,0-0.2-0.1-0.2,0.1c0,0.1,0,0.2-0.1,0.2
		c-0.3,3.6,0,5.1-1.5,8.8c-1.3,3.1-3.5,7-6.6,10.5c-1.8,2.1-4.8,5.5-7.5,8.6l1.9,2.3c0.2-0.2,0.8-0.9,1.5-1.6
		c9.3-9.9,17.4-16.1,20.3-18.2C120.9,291.2,119.9,290.3,119,289.4"/>
	<path class="st0" d="M91.5,317.1c-3.9,4.4-7.9,8.8-9,10.1c-1,1.1-9.6,10.3-9.6,10.3s0.2,0.4,0.5,0.7c0.3,0.3,0.7,0.7,0.7,0.7
		s18-18.5,19.4-19.9L91.5,317.1z"/>
	<path class="st0" d="M122.3,277.2c0-0.1,0-0.3,0-0.4c-0.9-0.3-1.7-0.2-2,0.2c-1.2,1.3,1.4,5.6,5.8,9.7c4.4,4.1,8.9,6.3,10.1,5.1
		c0.5-0.5,0.3-1.5-0.3-2.8C129.6,289.7,122.3,281.3,122.3,277.2"/>
	<path class="st0" d="M142.2,278.8c-0.6,0.7-1.7,2.4-2.3,3c0.7-0.6,1.1-2.1,0.3-6c-0.5-2.7-0.9-3.6-1.2-4.5c-0.2-0.5-0.5-0.4-0.9,0
		c-0.3,0.4-1.2,1.8-1.2,1.9c-0.1,0.3,0,0-1.3-3.9c-0.8-2.5-1.2-4.2-1.1-5.1c0-0.5,0-0.9,0.1-1.3c0-0.3-0.2-0.3-0.9,0
		c-0.4,0.2-3.8,2.5-5.2,6.1c-0.8,2-0.9,3.7-1,2.7c-0.3-2-0.2-2-0.4-1.9c-1.1,0.4-5,2.1-5,7.4c0,4.5,8.4,14,15.3,11.8
		c0,0,5.2-1,5.3-5.7C142.7,278.6,142.2,278.8,142.2,278.8 M140.5,284.7c-0.2,0.5-1.2,1.7-2.7,2.3c-1.6,0.7-3.8,0.8-4.9,0.5
		c-5.1-1.6-8.1-6.7-8.1-6.7c-4-6.5,1.4-9.2,1.8-9.3c0,0-0.5,2.1-0.2,3.5c0.3,1.3,1.1,2.3,1.3,3c0.5,1.4-0.2,2.4-0.5,2.9
		c-0.2,0.2,0.3,0.1,0.4,0c0.1-0.1,0.1-0.1,0.3-0.3c0.7-0.5,1.4-1.4,1.2-2.3c-0.5-2-1.9-3.2-0.2-7.3c1-2.5,3.4-5,3.7-5.1
		c0.4-0.3,0.6-0.6,0.6-0.3c0,0.3,0.4,2.1,0.7,3.3c0.2,1.2,1.6,3.6,1.3,7c-0.3,3.4-5.8,7.1-6.6,7.3c-0.2,0.1-0.6,0.3-0.7,0.4
		c-0.2,0.2,0.1,0.2,0.2,0.3c0.3,0,2.6-0.5,4.5-1.8c1.6-1.1,3.1-2.8,3.6-3.7c1-1.8,1.4-4.3,1.5-4.6c0.2-0.4,0.3-0.4,0.4-0.2
		c0,0.2,0.4,1.7,0.6,2.4c0.1,0.4,0.3,1.6,0.3,2.9c0,2.5-0.7,3.7-2.2,4.9c-0.9,0.7-1.8,0.9-2.8,1l-0.3,0.1c-0.2,0-0.3,0.1,0,0.2
		c0.1,0.1,0.2,0.1,0.4,0.2c0.8,0.4,2.6,0.3,3.8-0.4c0.5-0.3,1.2-0.8,2.2-1.7c0.4-0.3,0.8-1,0.9-0.8
		C140.9,282.6,141,283.7,140.5,284.7"/>
</g>
</svg>
