<?xml version="1.0" encoding="utf-8"?>
<!-- Generator: Adobe Illustrator 19.2.1, SVG Export Plug-In . SVG Version: 6.00 Build 0)  -->
<svg version="1.1" id="layer" xmlns="http://www.w3.org/2000/svg" xmlns:xlink="http://www.w3.org/1999/xlink" x="0px" y="0px"
	 viewBox="0 0 652 652" style="enable-background:new 0 0 652 652;" xml:space="preserve">
<style type="text/css">
	.st0{fill:#003056;}
	.st1{fill:#AE9E64;}
</style>
<path class="st0" d="M520.2,387.9L520.2,387.9c-2.7,0-4.8,2.1-4.8,4.8c0,2.7,2.1,4.9,4.8,4.9c2.7,0,4.8-2.1,4.8-4.9
	C525,390.1,522.9,387.9,520.2,387.9 M520.2,396.9c-2.1,0-3.9-1.8-3.9-4.1c0-2.3,1.7-4.1,3.9-4.1h0c2.1,0,3.9,1.8,3.9,4.1
	S522.4,396.9,520.2,396.9"/>
<path class="st0" d="M521.1,393L521.1,393c0.6-0.2,1.1-0.6,1.1-1.4c0-0.5-0.2-0.9-0.5-1.1c-0.3-0.2-0.9-0.4-1.7-0.4
	c-0.7,0-1.1,0.1-1.5,0.1v5.4h0.9v-2.3h0.6c0.7,0,1,0.3,1.2,1c0.1,0.7,0.2,1.2,0.4,1.4h0.9c-0.1-0.2-0.2-0.5-0.3-1.3
	C521.9,393.5,521.6,393,521.1,393 M519.9,392.6h-0.6v-1.8c0.2,0,0.3,0,0.6,0c1,0,1.3,0.5,1.3,0.9
	C521.2,392.4,520.6,392.6,519.9,392.6"/>
<path class="st0" d="M314.1,330.6h53c0.7,0,1,0.3,1,1v15.8c0,0.7-0.3,1-1,1h-8.5c-0.7,0-1-0.3-1-1v-5.9c0-0.4-0.2-0.6-0.6-0.6H347
	c-0.4,0-0.6,0.2-0.6,0.6v45.9c0,0.4,0.2,0.6,0.6,0.6h5.1c0.7,0,1,0.3,1,1v7.7c0,0.7-0.3,1-1,1h-23.1c-0.7,0-1-0.3-1-1v-7.7
	c0-0.7,0.3-1,1-1h5.1c0.4,0,0.6-0.2,0.6-0.6v-45.9c0-0.4-0.2-0.6-0.6-0.6h-10.1c-0.4,0-0.6,0.2-0.6,0.6v5.9c0,0.7-0.3,1-1,1h-8.5
	c-0.7,0-1-0.3-1-1v-15.8C313.1,330.9,313.5,330.6,314.1,330.6 M384.5,349c-4.7,0-8.8,1.2-12.3,3.4c-3.4,2.3-5.8,5.5-7.1,9.7
	c-1,3.3-1.6,7.2-1.6,11.7c0,4.3,0.6,8.1,1.7,11.6c1.3,4.1,3.7,7.4,7.1,9.7c3.4,2.3,7.7,3.5,12.7,3.5c8.4,0,14.9-2.7,19.5-8.1
	c0.4-0.5,0.4-1-0.1-1.4l-5.8-5.1c-0.5-0.4-1-0.3-1.5,0.2c-2.8,3-6.5,4.5-11.1,4.5c-5.5,0-9-2.4-10.6-7.2c-0.5-1.2-0.7-2.5-0.7-3.6
	c0-0.4,0.2-0.6,0.6-0.6h29.3c0.7,0,1.1-0.3,1.1-1c0-6.3-0.5-11.1-1.6-14.3c-1.3-4.1-3.7-7.3-7.1-9.6
	C393.5,350.2,389.4,349,384.5,349 M384.6,358.4c2.2,0,4.2,0.5,5.8,1.6c1.6,1.1,2.8,2.6,3.4,4.5c0.4,1.2,0.6,2.5,0.6,4
	c0,0.4-0.2,0.6-0.6,0.6h-18.6c-0.4,0-0.6-0.2-0.6-0.6c0-1.5,0.2-2.9,0.6-4C376.6,360.4,379.8,358.4,384.6,358.4 M433.4,349
	c-5.1,0-9.3,1.1-12.9,3.4c-3.5,2.3-6,5.5-7.3,9.7c-1,3-1.5,6.9-1.5,11.7c0,5.1,0.5,9.1,1.5,12c2.8,8.5,9.5,12.8,20.2,12.8
	c6.2,0,11.7-1.2,16.4-3.6c0.5-0.3,0.8-0.7,0.8-1.3v-10.9c0-0.7-0.3-1-1-1h-8.4c-0.7,0-1,0.3-1,1v4.4c0,0.3-0.2,0.6-0.5,0.7
	c-1.2,0.6-3.2,0.9-6,0.9c-5.1,0-8.4-2-9.8-6.1c-0.7-2-1-4.9-1-8.9c0-3.9,0.3-6.8,1-8.8c1.4-4.1,4.6-6.2,9.8-6.2c2.7,0,4.7,0.3,6,1
	c0.3,0.2,0.5,0.4,0.5,0.7v4.3c0,0.7,0.3,1,1,1h8.4c0.7,0,1-0.3,1-1v-10.8c0-0.6-0.3-1-0.8-1.3C445.4,350.3,440,349,433.4,349
	 M457.7,330.6c-0.7,0-1,0.3-1,1v7.7c0,0.7,0.3,1,1,1h4.2c0.4,0,0.6,0.2,0.6,0.6v46.5c0,0.4-0.2,0.6-0.6,0.6h-4.2c-0.7,0-1,0.3-1,1
	v7.7c0,0.7,0.3,1,1,1h20.7c0.7,0,1-0.3,1-1v-7.7c0-0.7-0.3-1-1-1h-4.2c-0.4,0-0.6-0.2-0.6-0.6v-18.1c0-3.2,0.8-5.7,2.3-7.5
	c1.5-1.9,3.7-2.8,6.6-2.8c2.9,0,5.1,0.9,6.6,2.8c1.5,1.9,2.3,4.4,2.3,7.5v18.1c0,0.4-0.2,0.6-0.6,0.6h-4.2c-0.7,0-1,0.3-1,1v7.7
	c0,0.7,0.3,1,1,1H507c0.7,0,1-0.3,1-1v-7.7c0-0.7-0.3-1-1-1h-4c-0.4,0-0.6-0.2-0.6-0.6v-20.7c0-5.2-1.5-9.4-4.5-12.7
	c-3-3.3-7-4.9-11.9-4.9c-5.7,0-9.8,1.8-12.3,5.5h-0.1v-23c0-0.7-0.3-1-1-1H457.7 M328.3,243.6c-13.7,0-22.2,5.4-25.7,16.3
	c-1.2,3.7-1.9,9.9-1.9,18.5c0,9.1,0.6,15.4,1.7,18.7c3.4,10.5,11.7,15.7,24.9,15.7c8.9,0,16.2-2.1,22.1-6.3c0.8-0.6,1.3-1.4,1.3-2.4
	v-28.3c0-0.7-0.3-1-1-1h-21.5c-0.7,0-1,0.3-1,1v7.9c0,0.7,0.3,1,1,1h10.6c0.4,0,0.6,0.2,0.6,0.6v13.1c0,0.7-0.3,1.2-1,1.6
	c-2.4,1.6-6.1,2.4-10.9,2.4c-3.9,0-6.9-0.7-9-2.2c-2.1-1.5-3.7-3.7-4.7-6.6c-0.9-2.7-1.3-7.7-1.3-15.2c0-7,0.5-12.1,1.6-15.4
	c2-6,6.7-9,13.9-9c4.2,0,7.7,0.9,10.3,2.7c0.3,0.2,0.4,0.5,0.4,0.8v5.8c0,0.7,0.3,1,1,1h8.9c0.7,0,1-0.3,1-1v-11.8
	c0-0.5-0.2-1-0.7-1.4c-2.2-1.9-5.2-3.5-8.9-4.7C336.3,244.2,332.4,243.6,328.3,243.6 M380.3,263.1c-4.7,0-8.8,1.2-12.3,3.4
	c-3.4,2.3-5.8,5.5-7.1,9.7c-1,3.3-1.6,7.2-1.6,11.7c0,4.3,0.6,8.1,1.7,11.6c1.3,4.1,3.7,7.4,7.1,9.7c3.4,2.3,7.7,3.5,12.7,3.5
	c8.4,0,14.9-2.7,19.5-8.1c0.4-0.5,0.4-1-0.1-1.4l-5.8-5.1c-0.5-0.4-1-0.3-1.5,0.2c-2.8,3-6.5,4.5-11.1,4.5c-5.5,0-9-2.4-10.6-7.2
	c-0.5-1.2-0.7-2.5-0.7-3.6c0-0.4,0.2-0.6,0.6-0.6h29.3c0.7,0,1.1-0.3,1.1-1c0-6.3-0.5-11.1-1.6-14.3c-1.3-4.1-3.7-7.3-7.1-9.6
	C389.3,264.3,385.2,263.1,380.3,263.1 M380.4,272.5c2.2,0,4.2,0.5,5.8,1.6c1.6,1.1,2.8,2.6,3.5,4.5c0.4,1.2,0.6,2.5,0.6,4
	c0,0.4-0.2,0.6-0.6,0.6h-18.6c-0.4,0-0.6-0.2-0.6-0.6c0-1.5,0.2-2.9,0.6-4C372.5,274.5,375.6,272.5,380.4,272.5 M430.1,263.1
	c-4.9,0-9,1.2-12.5,3.4c-3.4,2.3-5.8,5.5-7.1,9.7c-1.1,3.2-1.6,7.1-1.6,11.7c0,4.6,0.5,8.5,1.6,11.7c1.3,4.1,3.7,7.4,7.1,9.7
	c3.4,2.3,7.6,3.4,12.5,3.4c4.8,0,8.9-1.1,12.4-3.4c3.4-2.3,5.8-5.5,7.1-9.7c1-3.2,1.6-7.1,1.6-11.7c0-4.6-0.5-8.5-1.6-11.7
	c-1.3-4.1-3.7-7.4-7.1-9.7C439,264.3,434.9,263.1,430.1,263.1 M430.1,273c4.6,0,7.6,2.1,8.9,6.2c0.7,2.1,1,5,1,8.8
	c0,3.8-0.3,6.7-1,8.8c-1.4,4.1-4.4,6.2-8.9,6.2c-4.5,0-7.5-2.1-9-6.2c-0.7-2-1-5-1-8.8c0-3.7,0.3-6.7,1-8.8
	C422.5,275.1,425.5,273,430.1,273 M485.9,263.5c-5.3,0-9.2,2.2-11.9,6.6h-0.1v-4.9c0-0.7-0.3-1-1-1H458c-0.7,0-1,0.3-1,1v7.7
	c0,0.7,0.3,1,1,1h4.2c0.4,0,0.6,0.2,0.6,0.6v27c0,0.4-0.2,0.6-0.6,0.6H458c-0.7,0-1,0.3-1,1v7.7c0,0.7,0.3,1,1,1h21.1
	c0.7,0,1-0.3,1-1V303c0-0.7-0.3-1-1-1h-4.6c-0.4,0-0.6-0.2-0.6-0.6V286c0-8.1,3.5-12.2,10.6-12.2c1.1,0,3,0.3,5.8,0.8
	c0.8,0.2,1.2-0.1,1.2-1V265c0-0.5-0.3-0.9-1-1C489.1,263.7,487.5,263.5,485.9,263.5 M513.4,263.2c-8.3,0-13.7,3.9-16.2,11.6
	c-1.1,3.2-1.6,7.2-1.6,12c0,4.9,0.5,8.9,1.6,12.1c1.2,3.7,3.2,6.6,6,8.6c2.8,2,6.1,3,10.2,3c5.8,0,9.9-1.8,12.3-5.5h0.1v4.4
	c0,7.6-3.5,11.3-10.6,11.3c-3.8,0-7.3-1.5-10.3-4.4c-0.5-0.5-1-0.5-1.5,0l-5.8,5.8c-0.5,0.5-0.5,0.9-0.1,1.4
	c1.8,2.2,4.3,3.9,7.4,5.2c3.2,1.3,6.5,1.9,9.8,1.9c7.2,0,12.7-1.9,16.5-5.7c3.8-3.8,5.7-9.2,5.7-16.1v-34.3c0-0.4,0.2-0.6,0.6-0.6
	h4.2c0.7,0,1-0.3,1-1v-7.7c0-0.7-0.3-1-1-1h-14.9c-0.7,0-1,0.3-1,1v3.6h-0.1C523.4,265.1,519.2,263.2,513.4,263.2 M516.3,273.1
	c4.3,0,7.2,2,8.5,6c0.7,2.1,1.1,4.7,1.1,7.8c0,3.2-0.4,5.8-1.1,7.8c-1.3,4.1-4.1,6.1-8.5,6.1c-4.3,0-7.1-2-8.4-6.1
	c-0.7-2-1.1-4.6-1.1-7.8c0-3.1,0.4-5.7,1.1-7.8C509.2,275.1,512,273.1,516.3,273.1 M549,264.2c-0.7,0-1,0.3-1,1v7.7c0,0.7,0.3,1,1,1
	h4.2c0.4,0,0.6,0.2,0.6,0.6v27c0,0.4-0.2,0.6-0.6,0.6H549c-0.7,0-1,0.3-1,1v7.7c0,0.7,0.3,1,1,1h20.7c0.7,0,1-0.3,1-1V303
	c0-0.7-0.3-1-1-1h-4.2c-0.4,0-0.6-0.2-0.6-0.6v-36.3c0-0.7-0.3-1-1-1H549 M554.8,244.7c-0.7,0-1,0.3-1,1v8.6c0,0.7,0.3,1,1,1h9.1
	c0.6,0,1-0.3,1-1v-8.6c0-0.7-0.3-1-1-1H554.8 M595.9,263.1c-5.9,0-11.2,1.1-15.9,3.3c-0.5,0.3-0.8,0.7-0.8,1.3v10c0,0.7,0.3,1,1,1
	h8.6c0.7,0,1-0.3,1-1v-4.2c0-0.4,0.2-0.6,0.5-0.7c1.7-0.4,3.4-0.6,5.1-0.6c3.7,0,6.2,0.7,7.6,2c1.4,1.3,2.1,3.4,2.1,6.3v1.9
	c0,0.4-0.2,0.6-0.6,0.6h-9.5c-6,0-10.6,1.3-13.9,3.8c-3.3,2.5-5,6.3-5,11.4c0,4.7,1.5,8.3,4.5,10.8c3,2.5,6.8,3.7,11.4,3.7
	c6.2,0,10.6-1.8,13.2-5.5h0.1v3.5c0,0.7,0.3,1,1,1h14.1c0.7,0,1-0.3,1-1V303c0-0.7-0.3-1-1-1h-4.2c-0.4,0-0.6-0.2-0.6-0.6v-21.8
	c0-5.9-1.5-10.1-4.5-12.7C608.1,264.4,603,263.1,595.9,263.1 M604.5,291.3c0.4,0,0.6,0.2,0.6,0.6v3.8c0,5.4-3.4,8.1-10.3,8.1
	c-5.4,0-8.1-2-8.1-6c0-4.3,3.4-6.5,10.2-6.5H604.5"/>
<path class="st1" d="M239.5,388.7L239.5,388.7c-2.4,0-4.4,2-4.4,4.4c0,2.5,2,4.4,4.4,4.4c2.4,0,4.4-1.9,4.4-4.4
	C243.8,390.7,241.9,388.7,239.5,388.7 M239.5,396.9c-2,0-3.6-1.6-3.6-3.8c0-2.1,1.6-3.7,3.5-3.7h0c2,0,3.5,1.7,3.5,3.7
	C243,395.2,241.5,396.9,239.5,396.9"/>
<path class="st1" d="M240.3,393.3L240.3,393.3c0.5-0.2,1-0.6,1-1.2c0-0.5-0.2-0.8-0.5-1c-0.3-0.2-0.8-0.4-1.5-0.4
	c-0.6,0-1,0.1-1.4,0.1v4.9h0.8v-2.1h0.5c0.6,0,0.9,0.2,1.1,0.9c0.1,0.6,0.2,1.1,0.3,1.3h0.8c-0.1-0.2-0.2-0.5-0.3-1.2
	C241,393.7,240.7,393.4,240.3,393.3 M239.2,393h-0.6v-1.7c0.1,0,0.3,0,0.6,0c0.9,0,1.2,0.4,1.2,0.9C240.4,392.7,239.9,393,239.2,393
	"/>
<path class="st1" d="M99.6,244.6c-0.1,0-0.2,0-0.3,0c0.2,0,0.4,0,0.5,0C99.8,244.6,99.7,244.6,99.6,244.6"/>
<path class="st1" d="M120.1,292.9v38.6h20.7l2.2-11.6h9.3c-3.4,17.6-20.9,29.8-43.2,29.8c-1.5,0-3.1-0.1-4.6-0.2
	c-12.3-1-23.6-4.9-31.9-11.2c-9.1-6.9-13.9-16.1-13.8-26.7c0.1-11.4,4.9-21.9,13.6-29.6c8.3-7.4,19.4-11.7,31.3-12.2
	c0.7,0,1.5-0.1,2.2-0.1c13.9,0,28.8,5.5,39.9,14.6c0.6,0.5,0.7,0.6,0.8,0.7c0.1,0,0.1,0.1,0.8,0.6l0.3,0.3h0.4l23.3,0v-41.5h-24.1
	v11.9c-10.1-6.5-27.5-13-47.7-13l-0.3,0c-22,0.1-43.4,9.1-58.8,24.7C28,280.9,21.2,296.4,21.4,312c0.2,16.7,8.3,32.3,22.7,43.9
	c13.8,11.1,32.5,17.4,51.3,17.4c2.3,0,4.7-0.1,7-0.3c18.6-1.5,35.1-5.8,46.8-12l0,5.1h25.6v-46.2h8.8v53.6h-13.3v24.1h59.5v-24.1
	h-13.3v-53.6h30.1l2.1,11.6h20.8v-38.6H120.1z M99.6,244.6c0.1,0,0.1,0,0.2,0c-0.2,0-0.4,0-0.5,0C99.4,244.6,99.5,244.6,99.6,244.6"
	/>
</svg>
