<svg version="1.1" id="Layer_1" xmlns="http://www.w3.org/2000/svg" xmlns:xlink="http://www.w3.org/1999/xlink" x="0px" y="0px"
	 width="100%" viewBox="0 0 200 200" enable-background="new 0 0 200 200" xml:space="preserve">
<path fill="#FFFFFF" opacity="1.000000" stroke="none" 
	d="
M201.000000,8.999998 
	C201.000000,72.922157 201.000000,136.844315 201.000000,201.000000 
	C145.312653,201.000000 89.624985,201.000000 33.468765,200.637238 
	C33.000683,199.548996 33.001152,198.823502 33.332729,198.008148 
	C34.113235,197.978378 34.562637,198.038452 35.321365,198.374557 
	C36.278492,198.765823 36.926250,198.981644 37.574100,198.981903 
	C80.135773,198.999237 122.697464,199.006744 165.259094,198.962738 
	C166.502350,198.961456 167.745010,198.400208 169.360657,198.010193 
	C170.492859,197.981400 171.252350,198.042480 172.203217,198.334442 
	C173.259796,198.404312 174.125031,198.243301 175.304169,197.970352 
	C176.061066,197.858383 176.504059,197.858368 177.132477,198.126160 
	C181.491013,197.491776 183.950775,193.445755 182.744919,188.836624 
	C181.839890,185.377365 179.642029,183.790924 175.564819,185.811447 
	C155.718292,185.809464 136.338364,185.743347 116.802612,185.506744 
	C116.112892,185.444580 115.578987,185.552917 114.753296,185.732529 
	C113.974960,185.533707 113.488403,185.263611 113.007919,184.621613 
	C113.392174,181.688690 115.073326,178.900742 111.596657,176.541168 
	C111.425819,165.984650 111.353905,155.871353 111.401451,145.758591 
	C111.462181,132.842773 111.619347,119.927422 112.019012,106.879227 
	C113.531815,103.154312 114.760551,99.562042 116.048950,95.723282 
	C116.388542,95.311584 116.668472,95.146378 117.332336,94.993401 
	C124.924706,97.513145 127.659264,96.395012 128.395172,91.215088 
	C126.747849,89.991844 125.339005,88.945686 123.950752,87.940353 
	C123.971352,87.981178 123.887230,87.945290 124.133636,87.849030 
	C124.567757,87.463326 124.755463,87.173889 124.953888,86.924652 
	C124.964600,86.964851 124.884125,86.943687 125.131973,86.845207 
	C125.562813,86.451469 125.745819,86.156204 125.945282,85.905975 
	C125.961739,85.951012 125.873833,85.912704 126.277328,85.938904 
	C131.122269,86.165329 132.323730,83.641098 131.948639,79.533417 
	C132.165054,79.027023 132.417709,78.890335 133.146667,78.933960 
	C134.647659,79.288170 135.782135,79.536438 136.853714,79.948280 
	C141.035706,81.555481 144.020782,79.408089 144.250717,76.125702 
	C142.250275,74.059067 141.050049,72.819130 139.999756,71.294769 
	C160.433136,50.340240 180.716568,29.670118 201.000000,8.999998 
z"/>
<path fill="#043A31" opacity="1.000000" stroke="none" 
	d="
M176.947037,197.858353 
	C176.504059,197.858368 176.061066,197.858383 174.936432,197.883301 
	C173.507126,197.973312 172.759476,198.038437 172.011841,198.103561 
	C171.252350,198.042480 170.492859,197.981400 168.901276,197.914917 
	C136.004501,197.901108 103.939781,197.872528 71.875107,197.894592 
	C59.587376,197.903030 47.299725,198.027130 35.012039,198.098526 
	C34.562637,198.038452 34.113235,197.978378 32.904137,197.915314 
	C30.812517,197.902084 29.479219,197.927078 28.148911,197.875275 
	C23.271999,197.685410 20.652321,195.468094 20.942509,191.548141 
	C21.270615,187.115982 24.166611,185.852051 28.190205,185.862091 
	C48.502842,185.912842 68.815666,185.888687 89.128426,185.888199 
	C90.460159,185.888168 91.812485,186.011536 93.119576,185.826111 
	C96.389526,185.362183 97.331253,183.198471 95.387077,180.568558 
	C94.504288,179.374390 93.335503,178.390137 92.285988,177.320953 
	C68.030067,152.609894 43.736500,127.935478 19.588446,103.119469 
	C17.773895,101.254730 16.310280,98.506836 15.844058,95.957260 
	C12.047329,75.194557 8.597350,54.368706 4.876264,33.591724 
	C3.876384,28.008818 2.307618,22.527794 1.000000,17.000000 
	C1.000000,14.629442 1.000000,12.258885 1.380945,9.476148 
	C4.882991,6.422839 6.921670,8.804371 9.048717,10.656104 
	C40.445038,37.988663 71.817940,65.348221 103.279015,92.606026 
	C105.023994,94.117859 107.489922,94.797569 110.013199,95.904114 
	C111.313400,96.660820 112.220695,97.377998 113.105141,98.077271 
	C113.082291,98.059372 113.135674,98.074463 112.855927,98.196915 
	C112.358154,98.659119 112.140114,98.998863 111.903183,99.703995 
	C111.834503,102.383545 111.784729,104.697701 111.734947,107.011864 
	C111.619347,119.927422 111.462181,132.842773 111.401451,145.758591 
	C111.353905,155.871353 111.425819,165.984650 111.448868,176.925812 
	C111.969330,180.167114 112.485580,182.580322 113.001846,184.993530 
	C113.488403,185.263611 113.974960,185.533707 115.065651,185.836716 
	C116.099327,185.805511 116.528877,185.741379 116.958427,185.677246 
	C136.338364,185.743347 155.718292,185.809464 175.907928,185.942169 
	C182.713043,189.673325 182.786743,193.479935 176.947037,197.858353 
z"/>
<path fill="#FBFDFD" opacity="1.000000" stroke="none" 
	d="
M1.000000,17.468658 
	C2.307618,22.527794 3.876384,28.008818 4.876264,33.591724 
	C8.597350,54.368706 12.047329,75.194557 15.844058,95.957260 
	C16.310280,98.506836 17.773895,101.254730 19.588446,103.119469 
	C43.736500,127.935478 68.030067,152.609894 92.285988,177.320953 
	C93.335503,178.390137 94.504288,179.374390 95.387077,180.568558 
	C97.331253,183.198471 96.389526,185.362183 93.119576,185.826111 
	C91.812485,186.011536 90.460159,185.888168 89.128426,185.888199 
	C68.815666,185.888687 48.502842,185.912842 28.190205,185.862091 
	C24.166611,185.852051 21.270615,187.115982 20.942509,191.548141 
	C20.652321,195.468094 23.271999,197.685410 28.148911,197.875275 
	C29.479219,197.927078 30.812517,197.902084 32.573036,198.005173 
	C33.001152,198.823502 33.000683,199.548996 33.000107,200.637238 
	C22.354979,201.000000 11.709956,201.000000 1.000000,201.000000 
	C1.000000,139.979126 1.000000,78.958214 1.000000,17.468658 
z"/>
<path fill="#FDFEFE" opacity="1.000000" stroke="none" 
	d="
M109.620285,95.864594 
	C107.489922,94.797569 105.023994,94.117859 103.279015,92.606026 
	C71.817940,65.348221 40.445038,37.988663 9.048717,10.656104 
	C6.921670,8.804371 4.882991,6.422839 1.380945,9.031984 
	C1.000000,6.339607 1.000000,3.679214 1.000000,1.014116 
	C67.666664,1.009410 134.333328,1.009410 201.000000,1.009447 
	C201.000000,2.339681 201.000000,3.669878 200.670944,5.286328 
	C198.518799,5.054159 196.697433,4.091437 194.872360,4.084338 
	C169.765976,3.986677 144.659073,4.015985 119.552299,4.025310 
	C112.609924,4.027888 111.165558,5.484289 111.163979,12.529296 
	C111.158249,38.134907 111.207695,63.740662 111.107864,89.345871 
	C111.099388,91.520676 110.138649,93.691772 109.620285,95.864594 
z"/>
<path fill="#053A32" opacity="1.000000" stroke="none" 
	d="
M110.013199,95.904114 
	C110.138649,93.691772 111.099388,91.520676 111.107864,89.345871 
	C111.207695,63.740662 111.158249,38.134907 111.163979,12.529296 
	C111.165558,5.484289 112.609924,4.027888 119.552299,4.025310 
	C144.659073,4.015985 169.765976,3.986677 194.872360,4.084338 
	C196.697433,4.091437 198.518799,5.054159 200.670944,5.786290 
	C201.000000,6.750000 201.000000,7.500000 201.000000,8.624998 
	C180.716568,29.670118 160.433136,50.340240 139.689819,71.447289 
	C137.070358,74.223862 134.910812,76.563515 132.751251,78.903168 
	C132.417709,78.890335 132.165054,79.027023 131.637146,79.663544 
	C129.478653,81.980148 127.676247,83.946426 125.873840,85.912704 
	C125.873833,85.912704 125.961739,85.951012 125.684288,85.985580 
	C125.232597,86.328003 125.058365,86.635849 124.884125,86.943687 
	C124.884125,86.943687 124.964600,86.964851 124.693634,87.002068 
	C124.244194,87.341286 124.065712,87.643288 123.887230,87.945290 
	C123.887230,87.945290 123.971352,87.981178 123.638947,88.060547 
	C121.187172,90.420326 119.067787,92.700745 116.948402,94.981163 
	C116.668472,95.146378 116.388542,95.311584 115.720116,95.774261 
	C114.597076,96.746223 113.862534,97.420700 113.127991,98.095177 
	C112.220695,97.377998 111.313400,96.660820 110.013199,95.904114 
z"/>
<path fill="#FBFDFD" opacity="1.000000" stroke="none" 
	d="
M35.321365,198.374557 
	C47.299725,198.027130 59.587376,197.903030 71.875107,197.894592 
	C103.939781,197.872528 136.004501,197.901108 168.528564,198.004776 
	C167.745010,198.400208 166.502350,198.961456 165.259094,198.962738 
	C122.697464,199.006744 80.135773,198.999237 37.574100,198.981903 
	C36.926250,198.981644 36.278492,198.765823 35.321365,198.374557 
z"/>
<path fill="#FBFDFD" opacity="1.000000" stroke="none" 
	d="
M117.332336,94.993401 
	C119.067787,92.700745 121.187172,90.420326 123.618347,88.019714 
	C125.339005,88.945686 126.747849,89.991844 128.395172,91.215088 
	C127.659264,96.395012 124.924706,97.513145 117.332336,94.993401 
z"/>
<path fill="#FBFDFD" opacity="1.000000" stroke="none" 
	d="
M133.146667,78.933960 
	C134.910812,76.563515 137.070358,74.223862 139.539856,71.731705 
	C141.050049,72.819130 142.250275,74.059067 144.250717,76.125702 
	C144.020782,79.408089 141.035706,81.555481 136.853714,79.948280 
	C135.782135,79.536438 134.647659,79.288170 133.146667,78.933960 
z"/>
<path fill="#FBFDFD" opacity="1.000000" stroke="none" 
	d="
M177.132477,198.126160 
	C182.786743,193.479935 182.713043,189.673325 176.374527,185.878052 
	C179.642029,183.790924 181.839890,185.377365 182.744919,188.836624 
	C183.950775,193.445755 181.491013,197.491776 177.132477,198.126160 
z"/>
<path fill="#FBFDFD" opacity="1.000000" stroke="none" 
	d="
M113.105141,98.077271 
	C113.862534,97.420700 114.597076,96.746223 115.660461,96.020752 
	C114.760551,99.562042 113.531815,103.154312 112.019012,106.879227 
	C111.784729,104.697701 111.834503,102.383545 112.189697,99.578796 
	C112.708633,98.750290 112.922150,98.412376 113.135674,98.074463 
	C113.135674,98.074463 113.082291,98.059372 113.105141,98.077271 
z"/>
<path fill="#FBFDFD" opacity="1.000000" stroke="none" 
	d="
M126.277336,85.938911 
	C127.676247,83.946426 129.478653,81.980148 131.592529,79.883743 
	C132.323730,83.641098 131.122269,86.165329 126.277336,85.938911 
z"/>
<path fill="#FBFDFD" opacity="1.000000" stroke="none" 
	d="
M113.007912,184.621613 
	C112.485580,182.580322 111.969330,180.167114 111.600868,177.369263 
	C115.073326,178.900742 113.392174,181.688690 113.007912,184.621613 
z"/>
<path fill="#FBFDFD" opacity="1.000000" stroke="none" 
	d="
M172.203217,198.334442 
	C172.759476,198.038437 173.507126,197.973312 174.622498,197.995239 
	C174.125031,198.243301 173.259796,198.404312 172.203217,198.334442 
z"/>
<path fill="#FBFDFD" opacity="1.000000" stroke="none" 
	d="
M116.802612,185.506744 
	C116.528877,185.741379 116.099327,185.805511 115.357422,185.765457 
	C115.578987,185.552917 116.112892,185.444580 116.802612,185.506744 
z"/>
<path fill="#FBFDFD" opacity="1.000000" stroke="none" 
	d="
M124.133636,87.849030 
	C124.065712,87.643288 124.244194,87.341286 124.682922,86.961868 
	C124.755463,87.173889 124.567757,87.463326 124.133636,87.849030 
z"/>
<path fill="#FBFDFD" opacity="1.000000" stroke="none" 
	d="
M125.131973,86.845207 
	C125.058365,86.635849 125.232597,86.328003 125.667831,85.940552 
	C125.745819,86.156204 125.562813,86.451469 125.131973,86.845207 
z"/>
<path fill="#053A32" opacity="1.000000" stroke="none" 
	d="
M112.855927,98.196915 
	C112.922150,98.412376 112.708633,98.750290 112.208588,99.213402 
	C112.140114,98.998863 112.358154,98.659119 112.855927,98.196915 
z"/>
</svg>